<svg xmlns="http://www.w3.org/2000/svg" id="Andysvg" width="65.415" height="59.254" x="0" y="0" version="1.0"><defs id="defs3"><linearGradient id="linearGradient891" x1="92.438" x2="27.674" y1="-3.91" y2="91.077" gradientTransform="matrix(0.8184166,0,0,0.530237,-9.8827678,-14.589608)" gradientUnits="userSpaceOnUse"><stop id="stop889" offset="0" style="stop-color:#626262;stop-opacity:1"/><stop id="stop890" offset="1" style="stop-color:#fff;stop-opacity:1"/></linearGradient><linearGradient id="linearGradient905" x1="-77.726" x2="95.644" y1="208.44" y2="11.699" gradientTransform="matrix(0.7314635,0,0,0.5932693,-9.8827694,-14.589616)" gradientUnits="userSpaceOnUse"><stop id="stop889" offset="0" style="stop-color:#626262;stop-opacity:1"/><stop id="stop890" offset="1" style="stop-color:#fff;stop-opacity:1"/></linearGradient><radialGradient id="radialGradient1132" cx="60.005" cy="56.486" r="68.589" gradientTransform="matrix(0.8184166,0,0,0.530237,-9.8827678,-14.589608)" gradientUnits="userSpaceOnUse"><stop id="stop1134" offset="0" style="stop-color:#8bb7df;stop-opacity:1"/><stop id="stop1136" offset=".762" style="stop-color:#2a6092;stop-opacity:1"/><stop id="stop1135" offset="1" style="stop-color:#375e82;stop-opacity:1"/></radialGradient><linearGradient id="linearGradient1140" x1="45.686" x2="41.967" y1="110.445" y2="232.25" gradientTransform="matrix(1.2743811,0,0,0.3405213,-9.8827694,-14.589616)" gradientUnits="userSpaceOnUse"><stop id="stop889" offset="0" style="stop-color:#626262;stop-opacity:1"/><stop id="stop890" offset="1" style="stop-color:#fff;stop-opacity:1"/></linearGradient><linearGradient id="linearGradient1144" x1="31.45" x2="31.617" y1="203.499" y2="251.219" gradientTransform="matrix(1.4044089,0,0,0.3089952,-9.8827694,-14.589616)" gradientUnits="userSpaceOnUse"><stop id="stop893" offset="0" style="stop-color:#fff;stop-opacity:0"/><stop id="stop894" offset="1" style="stop-color:#fff;stop-opacity:1"/></linearGradient><linearGradient id="linearGradient1146" x1="39.811" x2="17.877" y1="90.197" y2="113.719" gradientTransform="matrix(0.8811179,0,0,0.4925045,-9.8827694,-14.589616)" gradientUnits="userSpaceOnUse"><stop id="stop893" offset="0" style="stop-color:#fff;stop-opacity:0"/><stop id="stop894" offset="1" style="stop-color:#fff;stop-opacity:1"/></linearGradient><linearGradient id="linearGradient1156" x1="25.221" x2="25.221" y1="178.489" y2="234.269" gradientTransform="matrix(1.6156202,0,0,0.2685999,-9.8827678,-14.589608)" gradientUnits="userSpaceOnUse"><stop id="stop889" offset="0" style="stop-color:#626262;stop-opacity:1"/><stop id="stop890" offset="1" style="stop-color:#fff;stop-opacity:1"/></linearGradient><linearGradient id="linearGradient1157" x1="51.461" x2="-16.224" y1="269.858" y2="176.287" gradientTransform="matrix(1.6156202,0,0,0.2685999,-9.8827678,-14.589608)" gradientUnits="userSpaceOnUse"><stop id="stop889" offset="0" style="stop-color:#626262;stop-opacity:1"/><stop id="stop890" offset="1" style="stop-color:#fff;stop-opacity:1"/></linearGradient><linearGradient id="linearGradient2635" x1="39.691" x2="70.224" y1="49.508" y2="20.482" gradientTransform="matrix(0.8821916,0,0,0.491702,-8.9069314,-15.277305)" gradientUnits="userSpaceOnUse"><stop id="stop893" offset="0" style="stop-color:#fff;stop-opacity:0"/><stop id="stop894" offset="1" style="stop-color:#fff;stop-opacity:1"/></linearGradient><linearGradient id="linearGradient2637" x1="35.19" x2="8.346" y1="76.278" y2="105.425" gradientTransform="matrix(0.8816883,0,0,0.4919824,-10.701684,-14.28309)" gradientUnits="userSpaceOnUse"><stop id="stop893" offset="0" style="stop-color:#fff;stop-opacity:0"/><stop id="stop894" offset="1" style="stop-color:#fff;stop-opacity:1"/></linearGradient></defs><rect id="rect1155" width="38.406" height="5.409" x="12.35" y="36.575" style="fill:url(#linearGradient1156);fill-opacity:1;fill-rule:evenodd;stroke:url(#linearGradient1157);stroke-width:.95344429pt"/><path id="path1139" d="M 0.19287398,54.885213 C -0.67386281,56.46268 1.5579198,59.253939 3.3933636,59.253939 L 62.069027,59.253939 C 63.628857,59.253939 65.976201,57.281205 65.269522,55.925378 L 58.655165,43.235277 C 58.145696,42.257819 57.005954,41.779036 55.881408,41.779036 L 8.9408812,41.779036 C 8.0135624,41.779036 7.0317541,42.438291 6.5938539,43.235277 L 0.19287398,54.885213 z" style="fill:url(#linearGradient1140);fill-opacity:1;fill-rule:evenodd;stroke-width:1.44734821pt"/><rect id="rect1137" width="48.221" height="39.11" x="7.473" y="-.01" rx="3.627" ry="3.537" style="fill:url(#linearGradient905);fill-opacity:1;fill-rule:evenodd;stroke-width:1.62826681"/><rect id="rect1131" width="38.813" height="24.747" x="12.39" y="6.028" style="fill:url(#radialGradient1132);fill-opacity:1;fill-rule:evenodd;stroke:url(#linearGradient891);stroke-width:.96503658pt"/><path id="path1145" d="M 8.5906358,19.782157 L 8.3772707,34.032521 C 8.3432557,36.304242 9.6712558,37.75887 12.004493,37.777143 L 38.568566,37.985175 L 41.128957,32.160207 L 11.471076,31.952177 L 11.257713,19.678141 L 8.5906358,19.782157 z" style="fill:url(#linearGradient1146);fill-opacity:1;fill-rule:evenodd;stroke-width:1pt"/><path id="path1143" d="M 2.7205883,54.675124 C 2.1113822,55.866786 2.9089235,57.975349 4.9701318,57.975349 L 60.179981,57.975349 C 61.276346,57.975349 62.926231,56.48511 62.429524,55.460899 L 57.78047,45.874547 C 57.422369,45.136152 56.621274,44.774474 55.830865,44.774474 L 8.8693353,44.774468 C 8.2175462,44.774468 7.5274604,45.272486 7.2196723,45.874547 L 2.7205883,54.675124 z" style="fill:url(#linearGradient1144);fill-opacity:1;fill-rule:evenodd;stroke-width:1pt"/><path id="path1147" d="M 19.010905,6.5904681 L 42.426675,6.2948726 C 46.041292,6.2492425 50.532134,9.8297185 50.532134,13.389152 L 50.532134,24.030571 L 18.710703,23.734975 L 19.010905,6.5904681 z" style="fill:url(#linearGradient2635);fill-opacity:1;fill-rule:evenodd;stroke-width:1pt"/><rect width="38.092" height="24.48" x="12.664" y="6.294" style="fill:#fff"/><path id="path1149" d="M 41.29338,29.915511 L 20.310226,29.977799 C 17.071125,29.987414 13.079277,26.740463 13.111035,23.55121 L 13.205982,14.016504 L 41.715336,14.556637 L 41.29338,29.915511 z" style="fill:url(#linearGradient2637);fill-opacity:1;fill-rule:evenodd;stroke-width:1pt"/><path fill="#0078d6" d="M 22.129 11.703 L 29.893 10.647 L 29.896 18.134 L 22.138 18.178 Z M 29.891 18.997 L 29.895 26.494 L 22.136 25.428 L 22.135 18.948 Z M 30.832 10.507 L 41.126 9.004 L 41.126 18.039 L 30.832 18.12 Z M 41.129 19.067 L 41.126 28.063 L 30.832 26.608 L 30.818 19.05 Z"/></svg>